Coordinates
version=1
nRows=13
nColumns=22
inDegrees=yes

Units are S.I. units (second, meters, Newtons, ...)
If the header above contains a line with 'inDegrees', this indicates whether rotational values are in degrees (yes) or radians (no).

endheader
time	pelvis_tilt	pelvis_list	pelvis_rotation	pelvis_tx	pelvis_ty	pelvis_tz	hip_flexion_r	hip_adduction_r	hip_rotation_r	knee_angle_r	ankle_angle_r	subtalar_angle_r	hip_flexion_l	hip_adduction_l	hip_rotation_l	knee_angle_l	ankle_angle_l	subtalar_angle_l	lumbar_extension	lumbar_bending	lumbar_rotation
      0.01000000	     -7.74481451	      1.01161769	    -31.58224235	     -1.61639244	      0.88376800	     -0.50567554	     10.62489779	     -0.66935907	     -1.05083495	    -12.40955544	     13.66614685	      1.10791363	      9.00902321	     -8.38186309	     -5.15784130	    -16.53039754	     17.78816151	      7.62595571	      1.75272398	      3.21764110	     11.13437805
      0.02000000	     -7.75250168	      1.00954893	    -31.61405096	     -1.61611665	      0.88374713	     -0.50572130	     10.62031560	     -0.67498025	     -1.05124034	    -12.41145091	     13.66730492	      1.10785815	      8.99220178	     -8.37240337	     -5.15068514	    -16.54444406	     17.78841527	      7.62375069	      1.76805794	      3.22207680	     11.12625557
      0.03000000	     -7.74874423	      1.03879750	    -31.69749659	     -1.61584960	      0.88371364	     -0.50572947	     10.62881991	     -0.70700976	     -0.94904200	    -12.41574243	     13.70076965	      1.12570802	      8.95156679	     -8.32759457	     -5.17113865	    -16.52774187	     17.82340163	      7.45711487	      1.78402788	      3.18944929	     11.17344067
      0.04000000	     -7.75986684	      1.04512963	    -31.76291698	     -1.61555254	      0.88367064	     -0.50576020	     10.64553376	     -0.71501510	     -0.89440462	    -12.43999307	     13.71068680	      1.15377138	      8.93363600	     -8.31252835	     -5.19013643	    -16.54258357	     17.86363282	      7.26428983	      1.80103350	      3.18729300	     11.18406707
      0.05000000	     -7.77208654	      1.05931041	    -31.82446459	     -1.61523675	      0.88361828	     -0.50579181	     10.66426747	     -0.73075274	     -0.84790610	    -12.45885283	     13.72838889	      1.17610098	      8.92506017	     -8.29029992	     -5.20686991	    -16.56374804	     17.89615299	      7.15338401	      1.82325031	      3.17504467	     11.19617673
      0.06000000	     -7.78392372	      1.06812028	    -31.88676066	     -1.61492646	      0.88356115	     -0.50581808	     10.68392052	     -0.74149399	     -0.80049569	    -12.48536672	     13.75004863	      1.19468399	      8.91868108	     -8.27550653	     -5.23326646	    -16.59239227	     17.94480788	      7.08720596	      1.83851067	      3.16636764	     11.20970954
      0.07000000	     -7.79631991	      1.08182239	    -31.95070174	     -1.61462609	      0.88349342	     -0.50583395	     10.70952117	     -0.75541274	     -0.74677582	    -12.51523043	     13.77828344	      1.21557253	      8.91822904	     -8.25915270	     -5.27331206	    -16.62537977	     17.99181016	      7.03552430	      1.85368357	      3.15231933	     11.22368449
      0.08000000	     -7.80874637	      1.09616555	    -32.01233000	     -1.61433449	      0.88342058	     -0.50584244	     10.73547156	     -0.76900724	     -0.69513260	    -12.54424764	     13.81192934	      1.23665593	      8.92016468	     -8.24366922	     -5.31804874	    -16.66098802	     18.03523851	      7.00504957	      1.86548171	      3.13623635	     11.23374045
      0.09000000	     -7.81714073	      1.10398678	    -32.06119551	     -1.61403755	      0.88335745	     -0.50585712	     10.74874075	     -0.78061170	     -0.64967701	    -12.56379019	     13.83904206	      1.24802937	      8.91647693	     -8.23132385	     -5.35139555	    -16.69528858	     18.06731908	      6.99796261	      1.86724676	      3.12357758	     11.21373264
      0.10000000	     -7.82505171	      1.11948181	    -32.12600286	     -1.61375967	      0.88327768	     -0.50585324	     10.76853257	     -0.79638040	     -0.59127117	    -12.58210161	     13.89461438	      1.26536426	      8.92252581	     -8.21591989	     -5.41454638	    -16.74914757	     18.10927758	      6.99472317	      1.86868741	      3.10378974	     11.23425248
      0.11000000	     -7.83505051	      1.13542741	    -32.19726314	     -1.61347605	      0.88319979	     -0.50582805	     10.79663309	     -0.80919793	     -0.52316026	    -12.61366214	     13.94129500	      1.28567212	      8.92296896	     -8.20335053	     -5.48851855	    -16.79007513	     18.13843378	      6.99796383	      1.87329000	      3.08720085	     11.25110205
      0.12000000	     -7.84215331	      1.14969846	    -32.26499704	     -1.61317730	      0.88312616	     -0.50580332	     10.81505380	     -0.82330989	     -0.46460923	    -12.63394564	     13.98952353	      1.30424863	      8.92560229	     -8.18989035	     -5.55440113	    -16.83954263	     18.16938112	      7.00554541	      1.87316956	      3.07033679	     11.28518570
      0.13000000	     -7.85275343	      1.16430154	    -32.34371748	     -1.61286379	      0.88305374	     -0.50574103	     10.84645598	     -0.83238842	     -0.39621027	    -12.67551385	     14.02855735	      1.33001767	      8.91887771	     -8.18141068	     -5.64274224	    -16.86868131	     18.20092624	      7.02021796	      1.87969296	      3.05648449	     11.33214984
